<svg width="359" height="80" viewBox="0 0 359 80" fill="none" xmlns="http://www.w3.org/2000/svg">
<rect width="359" height="80" fill="white"/>
<path d="M137.882 49.3366C136.328 51.9791 134.981 54.5179 133.944 56.7976C133.737 57.264 133.271 57.264 133.012 56.9013C132.39 56.0723 132.183 54.5179 133.271 51.6164C133.582 50.8392 134.048 49.8029 134.67 48.663C133.53 48.0413 133.115 47.2641 132.96 46.9014C132.701 46.2278 132.805 46.0206 133.582 46.1242C134.307 46.2278 135.084 46.3314 135.913 46.3833C139.955 39.3367 147.157 29.0908 152.636 24.583C153.465 23.9095 153.983 23.9095 154.501 24.6349C155.019 25.3602 155.175 25.4639 155.693 26.7592C156.211 28.0027 156.159 29.1426 155.693 30.5415C154.346 34.6347 152.895 39.9196 151.911 45.6061C153.465 46.1242 154.035 47.1605 154.242 48.2485C154.346 48.7148 154.138 48.8703 153.672 48.7148C153.05 48.5594 152.325 48.4558 151.444 48.404C151.082 51.0982 150.771 53.9479 150.667 56.694C150.667 57.2121 150.356 57.3676 149.89 57.1603C148.854 56.694 148.025 55.3987 147.973 52.4454C147.973 51.4091 148.025 50.062 148.18 48.5076C144.501 48.7667 140.304 49.3884 137.882 49.3366ZM148.594 45.347C149.372 39.9585 150.822 33.443 152.429 29.4016C148.491 33.8057 143.776 40.0751 139.851 46.2278C142.999 45.9688 146.159 45.3988 148.594 45.347Z" fill="#001A1A"/>
<path d="M159.631 55.8521C162.118 56.0593 165.744 52.3288 167.765 48.3392C168.128 47.6656 168.698 47.6138 168.905 48.3392C169.164 49.1682 168.957 50.3081 168.387 51.5516C167.661 53.106 163.879 57.4064 159.734 57.3028C156.159 57.1992 154.242 54.7122 155.434 49.1164C157.351 40.1009 163.257 30.7358 168.529 25.2436C169.307 24.4146 170.032 24.311 170.757 24.9846C172.26 26.3317 172.571 28.2488 171.949 30.684C170.343 37.057 164.54 43.2615 159.941 46.2667C157.869 51.3443 157.299 55.6448 159.631 55.8521ZM170.187 29.5959C169.514 29.1814 165.68 34.9326 162.105 41.5517C161.638 42.3807 161.224 43.2097 160.861 44.0387C167.959 38.3005 170.861 30.0104 170.187 29.5959Z" fill="#001A1A"/>
<path d="M183.089 46.176C182.001 50.5801 178.737 55.8132 174.902 57.1085C173.037 57.7303 170.447 57.523 168.374 54.8288C166.094 51.8236 166.871 47.3159 169.203 43.1709C171.172 39.6476 174.333 36.6425 177.441 36.4352C179.047 36.3316 179.928 36.7979 180.965 38.1969C182.156 39.8031 183.711 40.1657 183.4 43.8963C183.348 44.3108 183.348 44.6735 183.296 45.088C183.607 45.088 183.918 44.9843 184.332 44.9843C184.695 44.9843 184.695 45.2434 184.488 45.5025C184.112 45.917 183.594 46.1242 183.089 46.176ZM178.685 44.8807C177.597 44.0517 176.353 42.2383 176.301 40.3212C174.902 41.5129 173.4 43.2227 172.312 45.1916C170.136 49.1294 169.358 53.8961 170.706 55.036C172.156 56.2277 175.317 54.4143 177.856 49.6475C178.633 48.1967 179.255 46.746 179.669 45.5025C179.307 45.347 178.996 45.1398 178.685 44.8807ZM180.446 40.2694C180.187 38.6114 179.151 38.9222 178.892 40.4248C178.633 41.8238 179.203 43.3263 180.032 44.1035C180.446 42.4973 180.602 41.202 180.446 40.2694Z" fill="#001A1A"/>
<path d="M196.962 57.4583C192.609 57.4583 191.521 54.2977 193.076 49.79C194.785 44.7641 199.293 39.3756 198.464 38.9093C197.739 38.4948 192.091 42.0181 189.086 46.9403C187.221 49.9972 185.304 53.6241 184.06 56.7847C183.853 57.251 183.49 57.3546 183.179 56.992C182.35 56.0593 181.884 54.6086 182.972 51.4998C184.786 46.3185 195.55 28.0934 199.747 22.8603C200.213 22.2385 200.731 22.2903 200.99 22.9121C201.664 24.4147 201.508 27.0053 199.539 30.2695C198.296 32.342 195.55 36.5389 193.322 40.0103C195.446 37.9378 198.14 36.228 199.539 36.3834C201.301 36.5907 202.907 39.1813 201.56 41.8238C200.42 44.1035 197.933 47.8859 196.741 50.5801C195.446 53.5853 195.705 56.0205 197.622 55.9168C199.747 55.8132 202.596 52.0827 204.202 48.7667C204.41 48.3004 204.928 48.3004 205.135 48.7149C205.394 49.2848 205.394 50.3729 204.617 51.9273C203.179 54.8676 200.019 57.4583 196.962 57.4583Z" fill="#001A1A"/>
<path d="M222.13 36.6425C222.596 35.9689 223.011 35.8653 223.373 36.3316C224.151 37.2642 224.565 39.4922 223.322 42.0828C222.182 44.4144 219.591 48.3004 218.348 51.0465C217.052 53.948 217.001 56.1759 218.762 56.0723C220.886 55.9687 223.736 52.4454 225.55 48.8703C225.809 48.404 226.171 48.3522 226.379 48.8185C226.586 49.2848 226.586 50.5801 225.912 52.0309C224.565 54.8806 221.301 57.7303 218.451 57.5749C215.653 57.4194 214.203 55.7614 214.203 53.3262C212.545 55.4505 210.213 57.3676 207.726 57.3676C202.907 57.3676 201.923 50.7874 206.223 44.531C210.42 38.4171 214.513 36.0855 217.104 36.0855C219.332 36.0855 220.368 37.7953 220.265 39.816C220.938 38.5596 221.56 37.4715 222.13 36.6425ZM217.985 38.7668C216.327 38.6114 212.545 41.9792 209.695 46.5905C206.949 51.0464 206.275 55.606 208.296 55.6578C210.42 55.7096 213.115 52.3936 215.757 47.8341C219.021 42.1347 219.488 38.9223 217.985 38.7668Z" fill="#001A1A"/>
</svg>
